<mxfile host="app.diagrams.net" modified="2024-04-02T06:02:37.652Z" agent="Mozilla/5.0 (Windows NT 10.0; Win64; x64) AppleWebKit/537.36 (KHTML, like Gecko) Chrome/122.0.0.0 Safari/537.36" etag="gosx7eAeMftYlX001rmt" version="24.0.7" type="github">
  <diagram name="第 1 页" id="aY85W7hLm9SSeJCyl-jA">
    <mxGraphModel dx="2580" dy="996" grid="1" gridSize="10" guides="1" tooltips="1" connect="1" arrows="1" fold="1" page="1" pageScale="1" pageWidth="827" pageHeight="1169" math="0" shadow="0">
      <root>
        <mxCell id="0" />
        <mxCell id="1" parent="0" />
      </root>
    </mxGraphModel>
  </diagram>
</mxfile>
